<svg width="1056" height="949" viewBox="0 0 1056 949" fill="none" xmlns="http://www.w3.org/2000/svg">
<g filter="url(#filter0_d_2663_103517)">
<path d="M773.488 689.745L790.66 845.325C794.868 883.457 796.973 902.523 803.501 912.865C816.851 934.017 843.16 942.972 866.642 934.359C878.125 930.147 891.424 916.325 918.023 888.68L1275.18 517.491C1301.78 489.847 1315.08 476.025 1318.84 464.388C1326.54 440.591 1316.58 414.647 1294.93 402.122C1284.34 395.997 1265.21 394.629 1226.95 391.892L1070.82 380.727C1045.38 378.908 1032.66 377.998 1020.52 379.264C996.149 381.803 972.886 390.736 953.082 405.159C943.211 412.347 934.37 421.536 916.687 439.915L826.692 533.445C809.009 551.824 800.168 561.013 793.365 571.153C779.716 591.498 771.685 615.088 770.087 639.535C769.291 651.72 770.69 664.395 773.488 689.745Z" fill="#BDC6CD"/>
<path d="M316.584 -361.889C349.964 -396.581 366.654 -413.927 386.155 -420.682C403.308 -426.623 421.903 -426.981 439.272 -421.705C459.019 -415.707 476.365 -399.017 511.057 -365.637L827.131 -61.5151C917.981 25.8993 963.406 69.6066 981.094 120.675C996.653 165.596 997.591 214.29 983.775 259.777C968.067 311.489 924.36 356.914 836.946 447.764L677.094 613.897C643.714 648.589 627.024 665.935 607.523 672.69C590.369 678.631 571.775 678.989 554.405 673.713C534.659 667.715 517.313 651.025 482.621 617.645L166.547 313.523C75.6968 226.109 30.2718 182.401 12.5837 131.333C-2.97509 86.4118 -3.91351 37.7182 9.90306 -7.76893C25.6104 -59.4809 69.3176 -104.906 156.732 -195.756L316.584 -361.889Z" fill="#BDC6CD"/>
</g>
<defs>
<filter id="filter0_d_2663_103517" x="0.185791" y="-425.416" width="1332.24" height="1374.03" filterUnits="userSpaceOnUse" color-interpolation-filters="sRGB">
<feFlood flood-opacity="0" result="BackgroundImageFix"/>
<feColorMatrix in="SourceAlpha" type="matrix" values="0 0 0 0 0 0 0 0 0 0 0 0 0 0 0 0 0 0 127 0" result="hardAlpha"/>
<feOffset dx="7" dy="7"/>
<feGaussianBlur stdDeviation="2"/>
<feComposite in2="hardAlpha" operator="out"/>
<feColorMatrix type="matrix" values="0 0 0 0 0 0 0 0 0 0 0 0 0 0 0 0 0 0 0.25 0"/>
<feBlend mode="normal" in2="BackgroundImageFix" result="effect1_dropShadow_2663_103517"/>
<feBlend mode="normal" in="SourceGraphic" in2="effect1_dropShadow_2663_103517" result="shape"/>
</filter>
</defs>
</svg>
